<svg xmlns="http://www.w3.org/2000/svg" width="1300" height="187" viewBox="0 0 1300 187" fill="none">
    <g clip-path="url(#clip0_32_1112)">
    <path d="M24.6788 0.015625H0V182.245H17.467V25.8684L47.108 91.1632L56.3047 69.6855L24.6788 0.015625ZM149.727 71.6079V182.245H168.649V27.393L149.727 71.6079ZM143.508 0.015625L86.475 126.098H81.9759L67.0231 93.2845L57.8265 114.762L70.9929 143.797H95.9363L133.451 60.9354L133.98 59.7422L159.519 0.015625H143.508Z" fill="black"/>
    <path d="M332.072 109.327C332.072 98.3893 329.69 88.1145 325.059 78.5026C320.427 68.9569 313.48 61.1348 304.284 54.9699C295.087 48.805 283.575 45.6895 269.746 45.6895C258.962 45.6895 249.567 47.6781 241.495 51.5892C233.423 55.5003 226.741 60.6708 221.447 67.1671C216.154 73.6635 212.185 80.9553 209.604 89.1088C207.024 97.2624 205.767 105.615 205.767 114.1V117.613C205.767 126.231 207.024 134.65 209.604 142.803C212.185 150.957 216.154 158.315 221.447 164.877C226.741 171.44 233.555 176.677 241.892 180.588C250.162 184.499 259.954 186.488 271.268 186.488C281.722 186.488 291.051 184.698 299.189 181.251C307.327 177.737 314.009 172.766 319.369 166.402C324.662 159.972 328.168 152.349 329.822 143.532H312.355C310.701 150.691 306.335 156.923 299.189 162.16C292.043 167.396 282.714 169.982 271.268 169.982C260.484 169.982 251.552 167.595 244.472 162.756C237.459 157.917 232.232 151.421 228.792 143.135C225.814 135.843 224.094 127.822 223.763 119.072H332.072V109.327ZM224.491 104.621C225.285 98.8534 226.741 93.5502 228.792 88.6448C232.232 80.6238 237.327 74.2601 244.141 69.421C250.956 64.5819 259.491 62.1955 269.746 62.1955C280.002 62.1955 287.743 64.3167 294.293 68.5592C300.843 72.8017 305.871 78.6352 309.246 85.9933C311.826 91.5616 313.414 97.7927 314.009 104.621H224.491Z" fill="black"/>
    <path d="M408.027 166.732C400.352 166.732 394.464 164.743 390.362 160.633C386.193 156.59 384.076 150.69 384.076 143.067V79.1641H366.146V140.283C366.146 151.088 367.998 159.705 371.637 166.135C375.276 172.499 380.437 177.073 387.12 179.725C393.736 182.376 401.609 183.702 410.74 183.702H431.713V166.732H408.027Z" fill="black"/>
    <path d="M426.023 50.1978L420.598 62.9916H366.278V8.50195H384.076V50.1978H426.023Z" fill="black"/>
    <path d="M488.217 50.1953H469.757V182.243H488.217V50.1953Z" fill="black"/>
    <path d="M630.467 137.036C629.805 143.068 627.556 148.504 623.851 153.542C620.079 158.514 615.183 162.491 609.163 165.408C603.076 168.258 595.996 169.716 587.858 169.716C577.206 169.716 568.406 167.264 561.459 162.358C554.446 157.453 549.219 150.89 545.778 142.67C542.272 134.451 540.552 125.502 540.552 115.823C540.552 106.145 542.272 97.0636 545.778 89.0426C549.219 80.9553 554.446 74.5252 561.327 69.8187C568.208 65.0459 576.875 62.6595 587.329 62.6595C599.437 62.6595 609.03 65.7088 616.11 71.8074C623.189 77.8397 627.424 85.463 628.945 94.6109H646.875C645.883 84.6675 642.707 75.9836 637.414 68.6918C632.121 61.3337 625.174 55.6991 616.639 51.7218C608.038 47.7444 598.312 45.6895 587.329 45.6895C576.346 45.6895 567.083 47.6781 558.813 51.5892C550.608 55.5003 543.794 60.7371 538.302 67.2997C532.81 73.8623 528.708 81.2204 525.93 89.2414C523.217 97.3287 521.827 105.615 521.827 114.1V117.613C521.827 125.899 523.217 134.119 525.93 142.273C528.708 150.426 532.81 157.917 538.302 164.612C543.794 171.374 550.608 176.677 558.813 180.588C567.083 184.499 576.743 186.488 587.858 186.488C598.973 186.488 608.699 184.433 617.499 180.323C626.299 176.279 633.444 170.512 639.002 163.154C644.56 155.729 647.736 147.046 648.397 137.036H630.467Z" fill="black"/>
    <path d="M766.961 50.1953V131.797C766.961 143.796 763.719 153.076 757.368 159.639C750.95 166.201 741.952 169.516 730.307 169.516C718.662 169.516 709.863 166.201 703.445 159.639C696.961 153.076 693.719 143.796 693.719 131.797V50.1953H674.995V128.549C674.995 141.011 677.377 151.618 682.14 160.235C686.838 168.919 693.388 175.416 701.658 179.857C709.995 184.232 719.522 186.486 730.307 186.486C741.091 186.486 750.884 184.232 759.22 179.724C767.491 175.217 773.974 168.72 778.606 160.103C783.303 151.551 785.619 141.011 785.619 128.549V50.1953H766.961Z" fill="black"/>
    <path d="M851.584 167.528C848.276 167.528 845.695 166.6 843.909 164.744C842.056 162.954 841.13 160.104 841.13 156.259V0.015625H822.737V155.265C822.737 162.093 823.928 167.595 826.31 171.771C828.758 175.881 832.198 178.93 836.763 180.852C841.329 182.775 846.82 183.703 853.106 183.703H866.074V167.528H851.584Z" fill="black"/>
    <path d="M1018.84 89.2414C1015.8 81.0216 1011.3 73.6635 1005.28 67.1671C999.326 60.6708 992.048 55.5003 983.513 51.5892C974.978 47.6781 965.12 45.6895 954.004 45.6895C942.889 45.6895 933.295 47.6781 924.694 51.5892C916.159 55.5003 908.881 60.6708 902.926 67.1671C896.972 73.6635 892.406 81.0216 889.231 89.2414C886.055 97.5276 884.467 105.88 884.467 114.365V117.812C884.467 126.297 886.055 134.65 889.098 142.803C892.142 150.957 896.641 158.315 902.529 164.877C908.418 171.44 915.696 176.677 924.231 180.588C932.766 184.499 942.69 186.488 954.004 186.488C965.318 186.488 975.242 184.499 983.844 180.588C992.511 176.677 999.789 171.44 1005.68 164.877C1011.57 158.315 1016 150.957 1018.98 142.803C1021.95 134.65 1023.48 126.297 1023.48 117.812V114.365C1023.48 105.88 1021.95 97.5276 1018.84 89.2414ZM999.061 142.936C995.091 150.957 989.335 157.453 981.726 162.358C974.184 167.264 964.921 169.716 954.004 169.716C943.087 169.716 934.023 167.264 926.48 162.358C918.872 157.453 913.115 150.957 909.146 142.936C905.176 134.848 903.191 125.899 903.191 116.089C903.191 106.278 905.176 97.0636 909.278 89.0426C913.314 80.9553 919.202 74.5252 926.811 69.8187C934.486 65.0459 943.55 62.6595 954.004 62.6595C964.458 62.6595 973.721 65.0459 981.396 69.8187C989.004 74.5252 994.893 80.9553 998.929 89.0426C1003.03 97.0636 1005.02 106.079 1005.02 116.089C1005.02 126.098 1003.03 134.848 999.061 142.936Z" fill="black"/>
    <path d="M1145.74 50.1953V131.797C1145.74 143.796 1142.57 153.076 1136.15 159.639C1129.8 166.201 1120.8 169.516 1109.16 169.516C1097.51 169.516 1088.71 166.201 1082.23 159.639C1075.81 153.076 1072.57 143.796 1072.57 131.797V50.1953H1053.84V128.549C1053.84 141.011 1056.23 151.618 1060.99 160.235C1065.69 168.919 1072.24 175.416 1080.51 179.857C1088.84 184.232 1098.37 186.486 1109.16 186.486C1119.94 186.486 1129.73 184.232 1138.07 179.724C1146.34 175.217 1152.82 168.72 1157.46 160.103C1162.15 151.551 1164.47 141.011 1164.47 128.549V50.1953H1145.74Z" fill="black"/>
    <path d="M1287.13 118.606C1278.73 112.442 1267.88 108.597 1254.58 107.072L1239.7 105.614C1231.56 104.752 1225.54 102.565 1221.77 98.9849C1217.93 95.4053 1216.01 90.8976 1216.01 85.3956C1216.01 78.8993 1218.52 73.3973 1223.62 68.9559C1228.65 64.4483 1236.32 62.1944 1246.64 62.1944C1256.96 62.1944 1264.18 64.382 1269.34 68.6908C1274.43 72.9996 1277.14 78.3027 1277.28 84.6665H1294.74C1294.54 72.3367 1290.05 62.8573 1281.11 56.2284C1272.25 49.5332 1260.74 46.2188 1246.64 46.2188C1236.85 46.2188 1228.32 47.8097 1221.1 51.0579C1213.89 54.306 1208.27 58.88 1204.3 64.6471C1200.33 70.4806 1198.34 77.3084 1198.34 85.1305C1198.34 95.803 1201.98 104.155 1209.39 110.254C1216.8 116.286 1226.46 119.999 1238.44 121.324L1253.39 122.849C1262.65 123.843 1269.8 126.097 1274.7 129.677C1279.59 133.256 1282.04 138.294 1282.04 144.791C1282.04 151.751 1279.06 157.717 1273.17 162.622C1267.29 167.528 1258.42 169.981 1246.64 169.981C1234.01 169.981 1225.01 167.395 1219.58 162.225C1214.22 157.12 1211.38 151.353 1211.05 145.056H1193.58C1193.78 157.518 1198.41 167.462 1207.54 174.886C1216.67 182.244 1229.71 185.956 1246.64 185.956C1257.3 185.956 1266.56 184.233 1274.56 180.719C1282.5 177.206 1288.72 172.367 1293.09 166.136C1297.52 159.905 1299.71 152.878 1299.71 145.056C1299.71 133.588 1295.47 124.771 1287.13 118.606Z" fill="black"/>
    <path d="M479.02 29.1156C484.136 29.1156 488.283 24.9606 488.283 19.8352C488.283 14.7097 484.136 10.5547 479.02 10.5547C473.904 10.5547 469.757 14.7097 469.757 19.8352C469.757 24.9606 473.904 29.1156 479.02 29.1156Z" fill="black"/>
    </g>
    <defs>
    <clipPath id="clip0_32_1112">
    <rect width="1299.71" height="186.471" fill="white" transform="translate(0 0.015625)"/>
    </clipPath>
    </defs>
    </svg>
