<svg version="1.0" xmlns="http://www.w3.org/2000/svg"
 width="2085.000000pt" height="2085.000000pt" viewBox="0 0 2085.000000 2085.000000"
 preserveAspectRatio="xMidYMid meet">

<g transform="translate(0.000000,2085.000000) scale(0.100000,-0.100000)"
fill="#000000" stroke="none">
<path d="M20 10425 l0 -10415 10415 0 10415 0 0 10415 0 10415 -10415 0
-10415 0 0 -10415z m6978 5227 c10 -7 12 -1062 10 -5243 l-3 -5234 -730 -3
c-401 -1 -740 0 -752 3 l-23 5 0 5234 c0 4977 1 5235 18 5239 31 8 1467 7
1480 -1z m7962 -7 c0 -3 -9 -15 -20 -27 -11 -12 -20 -16 -20 -10 0 9 -166 12
-700 12 -385 0 -700 4 -700 8 0 5 3 12 7 15 8 8 1433 9 1433 2z m-1430 -60 c0
-8 -4 -17 -10 -20 -6 -4 -10 5 -10 20 0 15 4 24 10 20 6 -3 10 -12 10 -20z
m1376 -43 c-12 -11 -18 7 -10 30 l8 23 4 -23 c2 -13 1 -26 -2 -30z m-1406 -17
c0 -14 -4 -25 -9 -25 -5 0 -12 -10 -16 -22 -7 -22 -7 -22 -12 -3 -3 10 0 21 6
23 6 2 11 15 11 28 0 13 5 24 10 24 6 0 10 -11 10 -25z m1390 -14 c0 -11 -4
-23 -10 -26 -6 -4 -10 5 -10 19 0 14 5 26 10 26 6 0 10 -9 10 -19z m-30 -57
c0 -21 -4 -33 -10 -29 -17 10 -11 65 7 65 2 0 3 -16 3 -36z m-1410 -29 c0 -14
-4 -25 -10 -25 -5 0 -10 11 -10 25 0 14 5 25 10 25 6 0 10 -11 10 -25z m170
-6 c0 -5 -7 -9 -15 -9 -15 0 -20 12 -9 23 8 8 24 -1 24 -14z m1220 -18 c0 -17
-4 -33 -10 -36 -6 -4 -10 8 -10 29 0 20 5 36 10 36 6 0 10 -13 10 -29z m-730
-6 c0 -8 -4 -15 -10 -15 -5 0 -10 7 -10 15 0 8 5 15 10 15 6 0 10 -7 10 -15z
m-50 1 c0 -3 -4 -8 -10 -11 -5 -3 -10 -1 -10 4 0 6 5 11 10 11 6 0 10 -2 10
-4z m-630 -31 c0 -14 -4 -25 -10 -25 -5 0 -10 11 -10 25 0 14 5 25 10 25 6 0
10 -11 10 -25z m1376 -51 c-9 -6 -16 -23 -16 -38 0 -14 -4 -26 -10 -26 -5 0
-10 -9 -10 -19 0 -11 -7 -26 -15 -35 -8 -8 -15 -24 -15 -35 0 -12 -4 -21 -10
-21 -5 0 -10 -11 -10 -24 0 -13 -7 -29 -15 -36 -8 -7 -15 -21 -15 -31 0 -10
-4 -21 -10 -24 -5 -3 -10 -17 -10 -30 0 -12 -7 -25 -15 -29 -9 -3 -15 -18 -15
-35 0 -16 -3 -31 -7 -33 -8 -3 -27 -40 -51 -98 -5 -14 -17 -41 -26 -62 -9 -20
-16 -41 -16 -47 0 -6 -4 -11 -10 -11 -5 0 -10 -13 -10 -30 0 -16 -4 -30 -10
-30 -5 0 -10 -8 -10 -19 0 -10 -7 -24 -15 -31 -8 -7 -15 -23 -15 -36 0 -13 -4
-24 -10 -24 -5 0 -10 -9 -10 -19 0 -11 -7 -26 -15 -35 -8 -8 -15 -24 -15 -35
0 -11 -4 -23 -10 -26 -5 -3 -10 -15 -10 -25 0 -10 -7 -25 -15 -34 -8 -8 -15
-21 -15 -30 0 -8 -4 -18 -10 -21 -5 -3 -10 -17 -10 -29 0 -13 -7 -29 -15 -36
-8 -7 -15 -23 -15 -36 0 -13 -4 -24 -10 -24 -5 0 -10 -8 -10 -18 0 -10 -5 -23
-10 -28 -6 -6 -13 -21 -15 -35 -3 -13 -9 -25 -15 -27 -5 -2 -10 -10 -10 -18 0
-8 -4 -22 -9 -32 -24 -44 -41 -87 -41 -104 0 -10 -4 -18 -10 -18 -5 0 -10 -8
-10 -19 0 -10 -7 -24 -15 -31 -8 -7 -15 -20 -15 -30 0 -10 -12 -42 -26 -72
-15 -29 -30 -62 -34 -73 -4 -11 -19 -46 -34 -77 -14 -31 -26 -63 -26 -71 0 -8
-7 -20 -15 -27 -8 -7 -15 -23 -15 -36 0 -13 -4 -24 -10 -24 -5 0 -10 -9 -10
-19 0 -11 -4 -23 -10 -26 -5 -3 -10 -15 -10 -25 0 -10 -7 -25 -15 -34 -8 -8
-15 -21 -15 -30 0 -8 -11 -36 -25 -62 -14 -26 -25 -55 -25 -65 0 -11 -4 -19
-10 -19 -5 0 -10 -7 -10 -16 0 -9 -6 -28 -14 -42 -8 -15 -22 -45 -31 -67 -10
-22 -26 -58 -36 -79 -11 -22 -19 -47 -19 -57 0 -9 -7 -22 -15 -29 -8 -7 -15
-19 -15 -26 0 -8 -4 -22 -9 -32 -5 -9 -16 -33 -24 -52 -9 -19 -27 -62 -42 -95
-15 -33 -30 -69 -35 -80 -4 -11 -19 -45 -34 -75 -14 -30 -26 -60 -26 -67 0 -6
-11 -33 -24 -60 -13 -26 -31 -64 -39 -83 -8 -19 -25 -57 -37 -85 -30 -70 -56
-130 -86 -200 -7 -16 -28 -64 -47 -105 -19 -41 -46 -101 -61 -133 -14 -31 -37
-82 -51 -112 -44 -97 -77 -169 -100 -220 -13 -27 -38 -84 -58 -125 -19 -41
-45 -100 -59 -130 -14 -30 -38 -82 -53 -115 -31 -67 -65 -142 -102 -225 -14
-30 -40 -86 -59 -125 -19 -38 -34 -78 -34 -87 0 -9 -4 -20 -10 -23 -5 -3 -17
-23 -26 -43 -9 -20 -22 -49 -30 -64 -8 -14 -14 -33 -14 -42 0 -9 -4 -16 -10
-16 -5 0 -10 -5 -10 -12 0 -6 -10 -32 -21 -57 -12 -25 -35 -75 -51 -111 -16
-36 -40 -87 -53 -115 -54 -118 -98 -212 -110 -240 -13 -29 -64 -141 -110 -240
-13 -27 -35 -77 -50 -110 -54 -119 -97 -211 -111 -238 -8 -16 -14 -33 -14 -38
0 -5 -11 -27 -25 -49 -14 -22 -25 -45 -25 -52 0 -7 -16 -47 -36 -88 -48 -100
-77 -161 -114 -245 -18 -38 -40 -88 -51 -111 -10 -22 -19 -43 -19 -47 0 -4
-11 -25 -25 -47 -14 -22 -25 -45 -25 -52 0 -7 -11 -35 -24 -63 -67 -138 -135
-286 -183 -395 -36 -82 -101 -223 -156 -340 -24 -52 -52 -113 -62 -135 -10
-22 -29 -65 -43 -95 -14 -30 -36 -80 -50 -110 -14 -30 -35 -75 -47 -100 l-21
-45 -856 -3 -856 -2 -25 47 c-13 27 -149 298 -301 603 -152 305 -282 564 -288
575 -6 10 -56 109 -110 220 -104 209 -322 643 -440 875 -71 142 -73 148 -42
218 8 17 20 47 28 65 8 17 24 55 36 82 12 28 27 64 34 80 7 17 25 55 40 85 14
30 26 59 26 63 0 5 11 32 24 60 13 29 31 68 39 87 33 77 60 137 83 185 13 28
24 55 24 60 0 5 12 35 26 65 15 30 30 64 35 75 4 11 22 52 39 90 17 39 36 81
42 95 6 14 14 33 19 42 5 10 9 24 9 32 0 7 7 19 15 26 8 7 15 20 15 30 0 10
11 40 24 67 13 26 32 66 41 88 10 22 26 58 36 79 11 22 19 47 19 57 0 9 7 22
15 29 8 7 15 21 15 31 0 10 5 21 10 24 6 3 10 14 10 24 0 10 7 24 15 31 8 7
15 20 15 30 0 10 7 23 15 30 12 10 15 9 15 -5 0 -15 21 -62 63 -140 6 -11 216
-429 467 -930 252 -500 530 -1054 619 -1230 88 -176 161 -326 161 -333 0 -8 9
-12 22 -10 25 3 34 20 173 323 20 44 42 94 49 110 8 17 25 55 39 85 14 30 41
89 60 130 19 41 48 104 65 140 17 36 51 109 76 163 25 54 46 102 46 107 0 6
11 28 25 50 14 22 25 45 25 51 0 6 11 32 24 58 13 25 28 57 34 71 5 14 28 63
50 110 81 172 201 435 227 495 7 17 29 64 48 105 19 41 42 92 51 112 9 20 21
40 26 43 6 3 10 13 10 22 0 8 17 52 39 96 21 45 55 116 75 158 20 42 36 84 36
93 0 9 5 16 10 16 6 0 10 8 10 19 0 10 7 24 15 31 8 7 15 19 15 26 0 8 5 24
12 37 6 12 14 29 18 37 3 8 13 29 22 45 9 17 20 41 26 55 6 14 26 59 45 100
19 41 49 107 67 145 17 39 47 102 66 140 19 39 34 78 34 87 0 9 4 20 10 23 5
3 17 23 26 43 9 20 22 51 29 67 25 55 45 100 54 115 5 8 14 29 21 45 27 64 45
100 53 103 4 2 7 11 7 20 0 16 19 58 111 247 21 44 39 86 39 93 0 7 11 29 23
50 13 20 30 55 38 77 7 22 19 47 26 56 7 8 13 23 13 32 0 9 5 17 10 17 6 0 10
6 10 14 0 8 6 27 14 43 8 15 26 52 40 80 14 29 26 60 26 68 0 8 5 15 10 15 6
0 10 8 10 19 0 10 7 24 15 31 8 7 15 19 15 26 0 8 4 22 9 32 5 9 24 49 41 87
18 39 52 111 76 161 24 49 44 96 44 102 0 7 11 30 25 52 14 22 25 49 25 60 0
11 5 20 10 20 6 0 10 8 10 19 0 10 7 24 15 31 8 7 15 18 15 25 0 7 11 35 24
62 13 26 31 65 40 85 9 20 21 40 26 43 6 3 10 17 10 31 0 13 5 24 10 24 6 0
10 8 10 19 0 10 7 24 15 31 8 7 15 21 15 31 0 10 5 21 10 24 6 3 10 15 10 25
0 10 7 25 15 34 8 8 15 21 15 30 0 8 5 18 10 21 6 3 10 14 10 24 0 10 7 24 15
31 8 7 15 21 15 31 0 11 5 19 10 19 6 0 10 11 10 24 0 13 7 29 15 36 8 7 15
19 15 26 0 8 4 22 9 32 5 9 12 24 15 32 4 8 15 29 25 45 11 17 20 40 20 53 1
12 6 22 11 22 6 0 10 9 10 20 0 11 7 23 15 26 8 4 15 17 15 29 0 13 4 26 9 30
5 3 12 19 16 35 4 17 11 30 16 30 5 0 9 6 9 14 0 17 32 80 43 84 4 2 7 15 7
28 0 13 5 24 10 24 6 0 10 9 10 19 0 11 7 26 15 35 8 8 15 21 15 29 0 7 8 31
18 51 14 28 21 34 25 23 3 -9 2 -28 -2 -44 -9 -33 -4 -53 18 -70 23 -18 38
-16 61 7 13 13 16 22 8 26 -6 4 -15 0 -19 -9 -6 -9 -17 -13 -29 -10 -28 7 -25
23 4 23 13 0 26 7 30 15 3 8 12 15 21 15 9 0 18 -7 21 -15 11 -27 83 -19 116
12 25 24 28 25 34 8 5 -11 1 -22 -9 -30 -20 -14 -22 -25 -6 -25 7 0 22 12 35
27 20 23 24 25 30 10 6 -18 39 -23 48 -8 3 5 -1 11 -9 15 -8 3 -15 10 -15 16
0 20 21 9 55 -28 29 -32 39 -38 65 -34 16 2 30 8 30 13 0 5 11 9 25 9 28 0 32
8 10 24 -12 9 -11 14 6 35 22 27 40 20 22 -8 -9 -14 -9 -21 0 -30 9 -9 8 -14
-3 -21 -11 -7 -12 -12 -4 -20 17 -17 44 0 44 26 0 21 5 24 35 24 19 0 35 5 35
10 0 32 49 -10 50 -42 0 -25 14 -22 41 7 13 13 32 25 42 25 9 0 17 5 17 10 0
6 7 10 16 10 11 0 14 -5 10 -17 -7 -18 39 -66 58 -60 23 8 16 27 -9 27 -47 0
-22 25 28 28 38 3 47 7 47 22 0 10 5 22 10 25 6 3 10 -5 10 -19 0 -14 -4 -28
-10 -31 -23 -14 -7 -25 35 -25 31 0 47 5 51 15 4 8 10 15 15 15 5 0 9 -7 9
-15 0 -18 12 -19 28 -3 10 10 15 10 22 -1 7 -12 11 -13 25 -1 12 10 19 10 27
2 14 -14 48 -16 48 -3 0 5 -8 12 -17 15 -13 5 -14 9 -3 19 10 9 13 9 17 0 3
-7 13 -13 24 -13 11 0 22 -7 25 -15 4 -10 20 -15 50 -15 40 0 44 2 44 25 0 14
5 25 10 25 6 0 10 11 10 23 0 34 13 42 23 15 6 -16 4 -26 -7 -34z m-176 38 c0
-13 -12 -22 -22 -16 -10 6 -1 24 13 24 5 0 9 -4 9 -8z m100 -8 c0 -17 -22 -14
-28 4 -2 7 3 12 12 12 9 0 16 -7 16 -16z m-1110 -25 c0 -5 -7 -9 -15 -9 -15 0
-20 12 -9 23 8 8 24 -1 24 -14z m167 -5 c-9 -9 -28 6 -21 18 4 6 10 6 17 -1 6
-6 8 -13 4 -17z m643 -19 c0 -8 -4 -15 -10 -15 -5 0 -10 7 -10 15 0 8 5 15 10
15 6 0 10 -7 10 -15z m936 -4982 c-3 -780 -8 -2241 -11 -3248 -3 -1007 -8
-1845 -11 -1862 l-5 -33 -784 0 c-737 0 -785 1 -793 18 -5 9 -6 663 -3 1517
l6 1500 22 40 c12 22 34 67 48 100 15 33 34 76 42 95 9 19 27 60 40 90 35 76
66 145 97 213 14 31 36 81 50 110 13 28 30 68 39 87 31 71 60 136 83 185 13
28 33 73 45 100 30 69 75 170 106 235 14 30 29 64 33 75 12 28 57 131 85 190
38 82 70 153 130 290 62 139 101 227 142 315 34 74 44 97 99 220 25 58 55 125
66 150 12 25 32 70 45 100 14 30 33 73 43 95 10 22 42 92 70 155 71 159 74
167 108 240 16 36 40 88 52 115 12 28 34 75 48 105 23 51 55 124 85 193 6 15
15 27 20 27 6 0 7 -582 3 -1417z"/>
<path d="M14060 15270 c0 -5 4 -10 9 -10 6 0 13 5 16 10 3 6 -1 10 -9 10 -9 0
-16 -4 -16 -10z"/>
<path d="M14185 15251 c-6 -11 9 -23 19 -14 9 9 7 23 -3 23 -6 0 -12 -4 -16
-9z"/>
<path d="M14016 15232 c-3 -6 -1 -14 5 -17 15 -10 25 3 12 16 -7 7 -13 7 -17
1z"/>
<path d="M14410 15150 c0 -5 5 -10 10 -10 6 0 10 5 10 10 0 6 -4 10 -10 10 -5
0 -10 -4 -10 -10z"/>
<path d="M13620 15125 c0 -8 5 -15 10 -15 6 0 10 7 10 15 0 8 -4 15 -10 15 -5
0 -10 -7 -10 -15z"/>
<path d="M13846 15131 c-4 -7 -5 -15 -2 -18 9 -9 19 4 14 18 -4 11 -6 11 -12
0z"/>
<path d="M14460 15130 c0 -5 5 -10 10 -10 6 0 10 5 10 10 0 6 -4 10 -10 10 -5
0 -10 -4 -10 -10z"/>
</g>
</svg>
